<?xml version="1.0" encoding="UTF-8"?>
<svg width="700pt" height="700pt" version="1.1" viewBox="0 0 700 700" xmlns="http://www.w3.org/2000/svg" xmlns:xlink="http://www.w3.org/1999/xlink">
 <defs>
  <symbol id="s" overflow="visible">
   <path d="m18.766-1.125c-0.96875 0.5-1.9805 0.875-3.0312 1.125-1.043 0.25781-2.1367 0.39062-3.2812 0.39062-3.3984 0-6.0898-0.94531-8.0781-2.8438-1.9922-1.9062-2.9844-4.4844-2.9844-7.7344 0-3.2578 0.99219-5.8359 2.9844-7.7344 1.9883-1.9062 4.6797-2.8594 8.0781-2.8594 1.1445 0 2.2383 0.13281 3.2812 0.39062 1.0508 0.25 2.0625 0.625 3.0312 1.125v4.2188c-0.98047-0.65625-1.9453-1.1406-2.8906-1.4531-0.94922-0.3125-1.9492-0.46875-3-0.46875-1.875 0-3.3516 0.60547-4.4219 1.8125-1.0742 1.1992-1.6094 2.8555-1.6094 4.9688 0 2.1055 0.53516 3.7617 1.6094 4.9688 1.0703 1.1992 2.5469 1.7969 4.4219 1.7969 1.0508 0 2.0508-0.14844 3-0.45312 0.94531-0.3125 1.9102-0.80078 2.8906-1.4688z"/>
  </symbol>
  <symbol id="e" overflow="visible">
   <path d="m13.734-11.141c-0.4375-0.19531-0.87109-0.34375-1.2969-0.4375-0.41797-0.10156-0.83984-0.15625-1.2656-0.15625-1.2617 0-2.2305 0.40625-2.9062 1.2188-0.67969 0.80469-1.0156 1.9531-1.0156 3.4531v7.0625h-4.8906v-15.312h4.8906v2.5156c0.625-1 1.3438-1.7266 2.1562-2.1875 0.82031-0.46875 1.8008-0.70312 2.9375-0.70312 0.16406 0 0.34375 0.011719 0.53125 0.03125 0.19531 0.011719 0.47656 0.039062 0.84375 0.078125z"/>
  </symbol>
  <symbol id="c" overflow="visible">
   <path d="m17.641-7.7031v1.4062h-11.453c0.125 1.1484 0.53906 2.0078 1.25 2.5781 0.70703 0.57422 1.7031 0.85938 2.9844 0.85938 1.0312 0 2.082-0.14844 3.1562-0.45312 1.082-0.3125 2.1914-0.77344 3.3281-1.3906v3.7656c-1.1562 0.4375-2.3125 0.76562-3.4688 0.98438-1.1562 0.22656-2.3125 0.34375-3.4688 0.34375-2.7734 0-4.9297-0.70312-6.4688-2.1094-1.5312-1.4062-2.2969-3.3789-2.2969-5.9219 0-2.5 0.75391-4.4609 2.2656-5.8906 1.5078-1.4375 3.582-2.1562 6.2188-2.1562 2.4062 0 4.332 0.73047 5.7812 2.1875 1.4453 1.4492 2.1719 3.3828 2.1719 5.7969zm-5.0312-1.625c0-0.92578-0.27344-1.6719-0.8125-2.2344-0.54297-0.57031-1.25-0.85938-2.125-0.85938-0.94922 0-1.7188 0.26562-2.3125 0.79688s-0.96484 1.2969-1.1094 2.2969z"/>
  </symbol>
  <symbol id="a" overflow="visible">
   <path d="m9.2188-6.8906c-1.0234 0-1.793 0.17188-2.3125 0.51562-0.51172 0.34375-0.76562 0.85547-0.76562 1.5312 0 0.625 0.20703 1.1172 0.625 1.4688 0.41406 0.34375 0.98828 0.51562 1.7188 0.51562 0.92578 0 1.7031-0.32812 2.3281-0.98438 0.63281-0.66406 0.95312-1.4922 0.95312-2.4844v-0.5625zm7.4688-1.8438v8.7344h-4.9219v-2.2656c-0.65625 0.92969-1.3984 1.6055-2.2188 2.0312-0.82422 0.41406-1.8242 0.625-3 0.625-1.5859 0-2.8711-0.45703-3.8594-1.375-0.99219-0.92578-1.4844-2.1289-1.4844-3.6094 0-1.7891 0.61328-3.1016 1.8438-3.9375 1.2383-0.84375 3.1797-1.2656 5.8281-1.2656h2.8906v-0.39062c0-0.76953-0.30859-1.332-0.92188-1.6875-0.61719-0.36328-1.5703-0.54688-2.8594-0.54688-1.0547 0-2.0312 0.10547-2.9375 0.3125-0.89844 0.21094-1.7305 0.52344-2.5 0.9375v-3.7344c1.0391-0.25 2.0859-0.44141 3.1406-0.57812 1.0625-0.13281 2.125-0.20312 3.1875-0.20312 2.7578 0 4.75 0.54688 5.9688 1.6406 1.2266 1.0859 1.8438 2.8555 1.8438 5.3125z"/>
  </symbol>
  <symbol id="b" overflow="visible">
   <path d="m7.7031-19.656v4.3438h5.0469v3.5h-5.0469v6.5c0 0.71094 0.14062 1.1875 0.42188 1.4375s0.83594 0.375 1.6719 0.375h2.5156v3.5h-4.1875c-1.9375 0-3.3125-0.39844-4.125-1.2031-0.80469-0.8125-1.2031-2.1797-1.2031-4.1094v-6.5h-2.4219v-3.5h2.4219v-4.3438z"/>
  </symbol>
  <symbol id="l" overflow="visible">
   <path d="m12.766-13.078v-8.2031h4.9219v21.281h-4.9219v-2.2188c-0.66797 0.90625-1.4062 1.5703-2.2188 1.9844s-1.7578 0.625-2.8281 0.625c-1.8867 0-3.4336-0.75-4.6406-2.25-1.2109-1.5-1.8125-3.4258-1.8125-5.7812 0-2.3633 0.60156-4.2969 1.8125-5.7969 1.207-1.5 2.7539-2.25 4.6406-2.25 1.0625 0 2 0.21484 2.8125 0.64062 0.82031 0.42969 1.5664 1.0859 2.2344 1.9688zm-3.2188 9.9219c1.0391 0 1.8359-0.37891 2.3906-1.1406 0.55078-0.76953 0.82812-1.8828 0.82812-3.3438 0-1.457-0.27734-2.5664-0.82812-3.3281-0.55469-0.76953-1.3516-1.1562-2.3906-1.1562-1.043 0-1.8398 0.38672-2.3906 1.1562-0.55469 0.76172-0.82812 1.8711-0.82812 3.3281 0 1.4609 0.27344 2.5742 0.82812 3.3438 0.55078 0.76172 1.3477 1.1406 2.3906 1.1406z"/>
  </symbol>
  <symbol id="k" overflow="visible">
   <path d="m10.5-3.1562c1.0508 0 1.8516-0.37891 2.4062-1.1406 0.55078-0.76953 0.82812-1.8828 0.82812-3.3438 0-1.457-0.27734-2.5664-0.82812-3.3281-0.55469-0.76953-1.3555-1.1562-2.4062-1.1562-1.0547 0-1.8594 0.38672-2.4219 1.1562-0.55469 0.77344-0.82812 1.8828-0.82812 3.3281 0 1.4492 0.27344 2.5586 0.82812 3.3281 0.5625 0.77344 1.3672 1.1562 2.4219 1.1562zm-3.25-9.9219c0.67578-0.88281 1.4219-1.5391 2.2344-1.9688 0.82031-0.42578 1.7656-0.64062 2.8281-0.64062 1.8945 0 3.4453 0.75 4.6562 2.25 1.207 1.5 1.8125 3.4336 1.8125 5.7969 0 2.3555-0.60547 4.2812-1.8125 5.7812-1.2109 1.5-2.7617 2.25-4.6562 2.25-1.0625 0-2.0078-0.21094-2.8281-0.625-0.8125-0.42578-1.5586-1.0859-2.2344-1.9844v2.2188h-4.8906v-21.281h4.8906z"/>
  </symbol>
  <symbol id="j" overflow="visible">
   <path d="m0.34375-15.312h4.8906l4.125 10.391 3.5-10.391h4.8906l-6.4375 16.766c-0.64844 1.6953-1.4023 2.8828-2.2656 3.5625-0.86719 0.6875-2 1.0312-3.4062 1.0312h-2.8438v-3.2188h1.5312c0.83203 0 1.4375-0.13672 1.8125-0.40625 0.38281-0.26172 0.67969-0.73047 0.89062-1.4062l0.14062-0.42188z"/>
  </symbol>
  <symbol id="g" overflow="visible">
   <path d="m2.3594-15.312h4.8906v15.031c0 2.0508-0.49609 3.6172-1.4844 4.7031-0.98047 1.082-2.4062 1.625-4.2812 1.625h-2.4219v-3.2188h0.85938c0.92578 0 1.5625-0.21094 1.9062-0.625 0.35156-0.41797 0.53125-1.2461 0.53125-2.4844zm0-5.9688h4.8906v4h-4.8906z"/>
  </symbol>
  <symbol id="d" overflow="visible">
   <path d="m9.6406-12.188c-1.0859 0-1.9141 0.39062-2.4844 1.1719-0.57422 0.78125-0.85938 1.9062-0.85938 3.375s0.28516 2.5938 0.85938 3.375c0.57031 0.77344 1.3984 1.1562 2.4844 1.1562 1.0625 0 1.875-0.38281 2.4375-1.1562 0.57031-0.78125 0.85938-1.9062 0.85938-3.375s-0.28906-2.5938-0.85938-3.375c-0.5625-0.78125-1.375-1.1719-2.4375-1.1719zm0-3.5c2.6328 0 4.6914 0.71484 6.1719 2.1406 1.4766 1.418 2.2188 3.3867 2.2188 5.9062 0 2.5117-0.74219 4.4805-2.2188 5.9062-1.4805 1.418-3.5391 2.125-6.1719 2.125-2.6484 0-4.7148-0.70703-6.2031-2.125-1.4922-1.4258-2.2344-3.3945-2.2344-5.9062 0-2.5195 0.74219-4.4883 2.2344-5.9062 1.4883-1.4258 3.5547-2.1406 6.2031-2.1406z"/>
  </symbol>
  <symbol id="f" overflow="visible">
   <path d="m17.75-9.3281v9.3281h-4.9219v-7.1406c0-1.3203-0.03125-2.2344-0.09375-2.7344s-0.16797-0.86719-0.3125-1.1094c-0.1875-0.3125-0.44922-0.55469-0.78125-0.73438-0.32422-0.17578-0.69531-0.26562-1.1094-0.26562-1.0234 0-1.8242 0.39844-2.4062 1.1875-0.58594 0.78125-0.875 1.8711-0.875 3.2656v7.5312h-4.8906v-15.312h4.8906v2.2344c0.73828-0.88281 1.5195-1.5391 2.3438-1.9688 0.83203-0.42578 1.75-0.64062 2.75-0.64062 1.7695 0 3.1133 0.54688 4.0312 1.6406 0.91406 1.0859 1.375 2.6562 1.375 4.7188z"/>
  </symbol>
  <symbol id="i" overflow="visible">
   <path d="m17.75-9.3281v9.3281h-4.9219v-7.1094c0-1.3438-0.03125-2.2656-0.09375-2.7656s-0.16797-0.86719-0.3125-1.1094c-0.1875-0.3125-0.44922-0.55469-0.78125-0.73438-0.32422-0.17578-0.69531-0.26562-1.1094-0.26562-1.0234 0-1.8242 0.39844-2.4062 1.1875-0.58594 0.78125-0.875 1.8711-0.875 3.2656v7.5312h-4.8906v-21.281h4.8906v8.2031c0.73828-0.88281 1.5195-1.5391 2.3438-1.9688 0.83203-0.42578 1.75-0.64062 2.75-0.64062 1.7695 0 3.1133 0.54688 4.0312 1.6406 0.91406 1.0859 1.375 2.6562 1.375 4.7188z"/>
  </symbol>
  <symbol id="h" overflow="visible">
   <path d="m12.766-2.5938c-0.66797 0.88672-1.4062 1.543-2.2188 1.9688-0.8125 0.41797-1.7578 0.625-2.8281 0.625-1.8672 0-3.4062-0.73438-4.625-2.2031-1.2188-1.4766-1.8281-3.3516-1.8281-5.625 0-2.2891 0.60938-4.1641 1.8281-5.625 1.2188-1.4688 2.7578-2.2031 4.625-2.2031 1.0703 0 2.0156 0.21484 2.8281 0.64062 0.8125 0.41797 1.5508 1.0742 2.2188 1.9688v-2.2656h4.9219v13.766c0 2.457-0.77734 4.3359-2.3281 5.6406-1.5547 1.3008-3.8086 1.9531-6.7656 1.9531-0.94922 0-1.8711-0.074219-2.7656-0.21875-0.89844-0.14844-1.7969-0.37109-2.7031-0.67188v-3.8125c0.86328 0.48828 1.7031 0.85156 2.5156 1.0938 0.82031 0.23828 1.6484 0.35938 2.4844 0.35938 1.6016 0 2.7734-0.35156 3.5156-1.0469 0.75-0.69922 1.125-1.7969 1.125-3.2969zm-3.2188-9.5312c-1.0117 0-1.8047 0.375-2.375 1.125-0.5625 0.74219-0.84375 1.7969-0.84375 3.1719 0 1.3984 0.26953 2.4609 0.8125 3.1875 0.55078 0.71875 1.3516 1.0781 2.4062 1.0781 1.0195 0 1.8125-0.36719 2.375-1.1094 0.5625-0.75 0.84375-1.8008 0.84375-3.1562 0-1.375-0.28125-2.4297-0.84375-3.1719-0.5625-0.75-1.3555-1.125-2.375-1.125z"/>
  </symbol>
  <symbol id="r" overflow="visible">
   <path d="m12.422-21.281v3.2188h-2.7031c-0.6875 0-1.1719 0.125-1.4531 0.375-0.27344 0.25-0.40625 0.6875-0.40625 1.3125v1.0625h4.1875v3.5h-4.1875v11.812h-4.8906v-11.812h-2.4375v-3.5h2.4375v-1.0625c0-1.6641 0.46094-2.8984 1.3906-3.7031 0.92578-0.80078 2.3672-1.2031 4.3281-1.2031z"/>
  </symbol>
  <symbol id="q" overflow="visible">
   <path d="m16.547-12.766c0.61328-0.94531 1.3477-1.6719 2.2031-2.1719 0.85156-0.5 1.7891-0.75 2.8125-0.75 1.7578 0 3.0977 0.54688 4.0156 1.6406 0.92578 1.0859 1.3906 2.6562 1.3906 4.7188v9.3281h-4.9219v-7.9844-0.35938c0.007813-0.13281 0.015625-0.32031 0.015625-0.5625 0-1.082-0.16406-1.8633-0.48438-2.3438-0.3125-0.48828-0.82422-0.73438-1.5312-0.73438-0.92969 0-1.6484 0.38672-2.1562 1.1562-0.51172 0.76172-0.77344 1.8672-0.78125 3.3125v7.5156h-4.9219v-7.9844c0-1.6953-0.14844-2.7852-0.4375-3.2656-0.29297-0.48828-0.8125-0.73438-1.5625-0.73438-0.9375 0-1.6641 0.38672-2.1719 1.1562-0.51172 0.76172-0.76562 1.8594-0.76562 3.2969v7.5312h-4.9219v-15.312h4.9219v2.2344c0.60156-0.86328 1.2891-1.5156 2.0625-1.9531 0.78125-0.4375 1.6406-0.65625 2.5781-0.65625 1.0625 0 2 0.25781 2.8125 0.76562 0.8125 0.51172 1.4258 1.2305 1.8438 2.1562z"/>
  </symbol>
  <symbol id="p" overflow="visible">
   <path d="m2.5781-20.406h5.875l7.4219 14v-14h4.9844v20.406h-5.875l-7.4219-14v14h-4.9844z"/>
  </symbol>
  <symbol id="o" overflow="visible">
   <path d="m2.1875-5.9688v-9.3438h4.9219v1.5312c0 0.83594-0.007813 1.875-0.015625 3.125-0.011719 1.25-0.015625 2.0859-0.015625 2.5 0 1.2422 0.03125 2.1328 0.09375 2.6719 0.070313 0.54297 0.17969 0.93359 0.32812 1.1719 0.20703 0.32422 0.47266 0.57422 0.79688 0.75 0.32031 0.16797 0.69141 0.25 1.1094 0.25 1.0195 0 1.8203-0.39062 2.4062-1.1719 0.58203-0.78125 0.875-1.8672 0.875-3.2656v-7.5625h4.8906v15.312h-4.8906v-2.2188c-0.74219 0.89844-1.5234 1.5586-2.3438 1.9844-0.82422 0.41406-1.7344 0.625-2.7344 0.625-1.7617 0-3.1055-0.53906-4.0312-1.625-0.92969-1.082-1.3906-2.6602-1.3906-4.7344z"/>
  </symbol>
  <symbol id="n" overflow="visible">
   <path d="m2.5781-20.406h8.7344c2.5938 0 4.582 0.57812 5.9688 1.7344 1.3945 1.1484 2.0938 2.7891 2.0938 4.9219 0 2.1367-0.69922 3.7812-2.0938 4.9375-1.3867 1.1562-3.375 1.7344-5.9688 1.7344h-3.4844v7.0781h-5.25zm5.25 3.8125v5.7031h2.9219c1.0195 0 1.8047-0.25 2.3594-0.75 0.5625-0.5 0.84375-1.2031 0.84375-2.1094 0-0.91406-0.28125-1.6172-0.84375-2.1094-0.55469-0.48828-1.3398-0.73438-2.3594-0.73438z"/>
  </symbol>
  <symbol id="m" overflow="visible">
   <path d="m14.719-14.828v3.9844c-0.65625-0.45703-1.3242-0.79688-2-1.0156-0.66797-0.21875-1.3594-0.32812-2.0781-0.32812-1.3672 0-2.4336 0.40234-3.2031 1.2031-0.76172 0.79297-1.1406 1.9062-1.1406 3.3438 0 1.4297 0.37891 2.543 1.1406 3.3438 0.76953 0.79297 1.8359 1.1875 3.2031 1.1875 0.75781 0 1.4844-0.10938 2.1719-0.32812 0.6875-0.22656 1.3203-0.56641 1.9062-1.0156v4c-0.76172 0.28125-1.5391 0.48828-2.3281 0.625-0.78125 0.14453-1.5742 0.21875-2.375 0.21875-2.7617 0-4.9219-0.70703-6.4844-2.125-1.5547-1.4141-2.3281-3.3828-2.3281-5.9062 0-2.5312 0.77344-4.5039 2.3281-5.9219 1.5625-1.4141 3.7227-2.125 6.4844-2.125 0.80078 0 1.5938 0.074219 2.375 0.21875 0.78125 0.13672 1.5547 0.35156 2.3281 0.64062z"/>
  </symbol>
 </defs>
 <g>
  <path d="m215.8 144.03c0-2.3203-1.8828-4.1992-4.1992-4.1992h-41.621v-7.3672c10.535-1.9805 18.543-11.219 18.543-22.324 0-12.547-10.203-22.75-22.746-22.75-12.547 0-22.75 10.203-22.75 22.75 0 11.105 8.0078 20.344 18.551 22.324v11.566c0 2.3203 1.8828 4.1992 4.1992 4.1992h45.824c2.3203 0 4.1992-1.8828 4.1992-4.1992zm-64.371-33.891c0-7.9141 6.4375-14.352 14.352-14.352 7.9062 0 14.344 6.4375 14.344 14.352 0 7.9102-6.4375 14.348-14.344 14.348-7.9141 0-14.352-6.4375-14.352-14.348z"/>
  <path d="m542.49 178.57c0-2.3203-1.8828-4.1992-4.1992-4.1992-2.3203 0-4.1992 1.8828-4.1992 4.1992v9.7852c0 2.3203 1.8828 4.1992 4.1992 4.1992 2.3203 0 4.1992-1.8828 4.1992-4.1992z"/>
  <path d="m538.29 204.75c-2.3203 0-4.1992 1.8828-4.1992 4.1992v9.7852c0 2.3203 1.8828 4.1992 4.1992 4.1992 2.3203 0 4.1992-1.8828 4.1992-4.1992v-9.7852c0-2.3164-1.8828-4.1992-4.1992-4.1992z"/>
  <path d="m518.2 194.45c-2.3203 0-4.1992 1.8828-4.1992 4.1992 0 2.3203 1.8828 4.1992 4.1992 4.1992h9.7852c2.3203 0 4.1992-1.8828 4.1992-4.1992 0-2.3203-1.8828-4.1992-4.1992-4.1992z"/>
  <path d="m558.37 194.45h-9.7852c-2.3203 0-4.1992 1.8828-4.1992 4.1992 0 2.3203 1.8828 4.1992 4.1992 4.1992h9.7852c2.3203 0 4.1992-1.8828 4.1992-4.1992 0.003906-2.3164-1.8789-4.1992-4.1992-4.1992z"/>
  <path d="m263.88 390.46c-2.3203 0-4.1992 1.8828-4.1992 4.1992v9.7852c0 2.3203 1.8828 4.1992 4.1992 4.1992 2.3203 0 4.1992-1.8828 4.1992-4.1992v-9.7852c0.003906-2.3203-1.8789-4.1992-4.1992-4.1992z"/>
  <path d="m263.88 420.84c-2.3203 0-4.1992 1.8828-4.1992 4.1992v9.7852c0 2.3203 1.8828 4.1992 4.1992 4.1992 2.3203 0 4.1992-1.8828 4.1992-4.1992v-9.7852c0.003906-2.3164-1.8789-4.1992-4.1992-4.1992z"/>
  <path d="m253.58 410.54h-9.7852c-2.3203 0-4.1992 1.8828-4.1992 4.1992 0 2.3203 1.8828 4.1992 4.1992 4.1992h9.7852c2.3203 0 4.1992-1.8828 4.1992-4.1992 0-2.3164-1.8789-4.1992-4.1992-4.1992z"/>
  <path d="m283.96 410.54h-9.7852c-2.3203 0-4.1992 1.8828-4.1992 4.1992 0 2.3203 1.8828 4.1992 4.1992 4.1992h9.7852c2.3203 0 4.1992-1.8828 4.1992-4.1992 0-2.3164-1.8789-4.1992-4.1992-4.1992z"/>
  <path d="m171.52 196.46c0-2.3203-1.8828-4.1992-4.1992-4.1992-2.3203 0-4.1992 1.8828-4.1992 4.1992v9.7852c0 2.3203 1.8828 4.1992 4.1992 4.1992 2.3203 0 4.1992-1.8828 4.1992-4.1992z"/>
  <path d="m167.32 222.64c-2.3203 0-4.1992 1.8828-4.1992 4.1992v9.7852c0 2.3203 1.8828 4.1992 4.1992 4.1992 2.3203 0 4.1992-1.8828 4.1992-4.1992v-9.7852c0-2.3203-1.8828-4.1992-4.1992-4.1992z"/>
  <path d="m147.23 212.34c-2.3203 0-4.1992 1.8828-4.1992 4.1992 0 2.3203 1.8828 4.1992 4.1992 4.1992h9.7852c2.3203 0 4.1992-1.8828 4.1992-4.1992 0-2.3203-1.8828-4.1992-4.1992-4.1992z"/>
  <path d="m177.62 212.34c-2.3203 0-4.1992 1.8828-4.1992 4.1992 0 2.3203 1.8828 4.1992 4.1992 4.1992h9.7852c2.3203 0 4.1992-1.8828 4.1992-4.1992 0-2.3203-1.8828-4.1992-4.1992-4.1992z"/>
  <path d="m382.05 183.63c0 7.8125-6.332 14.145-14.141 14.145-7.8125 0-14.145-6.332-14.145-14.145s6.332-14.145 14.145-14.145c7.8086 0 14.141 6.332 14.141 14.145"/>
  <path d="m545.33 244.22c2.3203 0 4.1992-1.8828 4.1992-4.1992 0-2.3203-1.8828-4.1992-4.1992-4.1992l-58.965-0.003907v-47.992h17.02c2.3203 0 4.1992-1.8828 4.1992-4.1992 0-2.3203-1.8828-4.1992-4.1992-4.1992h-17.02v-29.078c0-2.3203-1.8828-4.1992-4.1992-4.1992-2.3203 0-4.1992 1.8828-4.1992 4.1992v29.078h-41.66c-0.84766-6.2812-2.125-12.449-3.8086-18.465 0.058594-0.015625 0.12109-0.007813 0.17969-0.027344 13.316-4.4258 23.297-14.898 27.098-28.016 0.5625 0.28125 1.1758 0.47266 1.8477 0.47266h17.039c1.3555 0 2.625-0.65234 3.4141-1.7539l12.766-17.812h21.125c1.9805 10.539 11.219 18.551 22.324 18.551 12.539 0 22.746-10.203 22.746-22.75 0-12.543-10.203-22.746-22.746-22.746-11.105 0-20.344 8.0078-22.324 18.547h-23.285c-1.3555 0-2.625 0.65234-3.4141 1.7539l-12.766 17.812h-14.879c-0.14453 0-0.26562 0.066406-0.40625 0.082031 0.96484-10.34-1.8711-20.539-8.1797-28.93-6.7539-8.9727-16.613-14.812-27.766-16.438-14.562-2.1172-28.82 3.3711-38.195 14.344-16.617-12.141-35.738-18.969-55.578-19.828v-10.66h38.277c2.3203 0 4.1992-1.8828 4.1992-4.1992 0-2.3203-1.8828-4.1992-4.1992-4.1992h-42.477c-2.3203 0-4.1992 1.8828-4.1992 4.1992v14.871c-42.566 2.1406-79.492 36.512-93.535 87.297h-9.375c-2.3203 0-4.1992 1.8828-4.1992 4.1992v66.375c0 0.98047 0.34375 1.9336 0.97266 2.6875l13.488 16.188c8.5664 28.457 24.656 51.617 44.77 66.395v37.559l-91.355 13.582c-0.47656 0.10547-47.492 11.238-46.418 73.805 0.039062 2.2969 1.9141 4.1289 4.1992 4.1289h0.070312c2.3203-0.039063 4.168-1.9531 4.1289-4.2695-0.95312-55.504 38.184-65.082 39.543-65.41l94.641-14.066c2.0547-0.30469 3.582-2.0742 3.582-4.1523v-35.688c12.211 7.1953 25.59 11.422 39.48 12.141v135.36c0 0.019531-0.011719 0.035157-0.011719 0.054688s0.011719 0.035156 0.011719 0.054687v11.625c0 2.3203 1.8828 4.1992 4.1992 4.1992 2.3203 0 4.1992-1.8828 4.1992-4.1992v-7.4766h29.406l3.0391 8.8438c0.57812 1.6992 2.1758 2.8359 3.9688 2.8359h16.34c1.9805 10.539 11.219 18.551 22.324 18.551 12.539 0 22.746-10.203 22.746-22.75 0-12.543-10.203-22.746-22.746-22.746-11.105 0-20.344 8.0078-22.324 18.547h-13.344l-3.0391-8.8438c-0.57812-1.6992-2.1758-2.8359-3.9688-2.8359h-32.402l0.003906-62.508 70.891 7.8672c2.4766 1.2031 15.301 8.8477 16.051 38.566 0.058594 2.2812 1.9258 4.0938 4.1992 4.0938h0.10547c2.3203-0.058594 4.1523-1.9883 4.0977-4.3086-0.96875-38.398-21.078-46.098-21.93-46.406-0.3125-0.11328-0.63281-0.1875-0.96094-0.22266l-72.449-8.043-0.003906-60.27c2.332-0.15234 4.7422-0.5 7.2305-1.0352 14.125-0.47266 27.93-2.0703 40.535-6.4883-0.007813 0.24609-0.074219 0.47656-0.035157 0.73047l4.7578 30.988c0.27344 1.7812 1.6562 3.1953 3.4336 3.5l81.059 14.031c0.41016 0.089844 40.797 9.6758 39.84 65.461-0.039062 2.3203 1.8086 4.2305 4.1289 4.2695h0.070313c2.2852 0 4.1602-1.832 4.1992-4.1289 0.19141-11.242-1.2109-20.77-3.5742-28.926h32.188c2.3203 0 4.1992-1.8828 4.1992-4.1992 0-2.3203-1.8828-4.1992-4.1992-4.1992h-35.133c-12.711-30.012-39.59-36.41-40.094-36.52l-78.273-13.547-4.2969-28.004c-0.14062-0.92969-0.625-1.6836-1.2422-2.293 11.352-5.2031 21.488-13.188 29.68-25.348 0.76562 0.80859 1.832 1.3281 3.0352 1.3281h58.965v47.992h-16.531c-2.3203 0-4.1992 1.8828-4.1992 4.1992 0 2.3203 1.8828 4.1992 4.1992 4.1992h83.895c2.3203 0 4.1992-1.8828 4.1992-4.1992 0-2.3203-1.8828-4.1992-4.1992-4.1992h-58.965v-47.992h32.309c2.3203 0 4.1992-1.8828 4.1992-4.1992 0-2.3203-1.8828-4.1992-4.1992-4.1992h-32.309v-47.992zm-7.043-148.95c7.9062 0 14.344 6.4375 14.344 14.348 0 7.9141-6.4375 14.352-14.344 14.352-7.9141 0-14.352-6.4375-14.352-14.352 0-7.9102 6.4375-14.348 14.352-14.348zm-131.71 372.46c7.9062 0 14.344 6.4375 14.344 14.348 0 7.9141-6.4375 14.352-14.344 14.352-7.9141 0-14.352-6.4375-14.352-14.352 0-7.9102 6.4375-14.348 14.352-14.348zm17.477-379.72c8.9453 1.3047 16.855 5.9844 22.262 13.176 5.3984 7.1797 7.6602 16.008 6.3711 24.855-1.832 12.562-10.516 22.875-22.664 26.91-0.007813 0.003906-0.015626 0.011718-0.023438 0.015624-5.2344-15.016-13.059-28.883-23.227-40.734 2.8633-2.8125 12.988-11.043 25.828-1.5352 1.8594 1.3828 4.4883 0.98438 5.875-0.875 1.3828-1.8633 0.98828-4.4922-0.875-5.875-15.602-11.562-30.027-4.2656-36.582 2.1445-2.3828-2.4102-4.8203-4.7188-7.3477-6.8711 7.5039-8.6172 18.812-12.918 30.383-11.211zm-51.898 142.9c2.7227 2.4453 5.6719 4.2344 8.5195 5.957 7.8789 4.7734 14.688 8.8906 15.809 26.551 0.72266 11.414-5.1133 24.336-16.422 36.391-11.988 12.766-28.496 22.562-42.328 25.77-2.0664 0.0625-4.1484 0.10547-6.2383 0.12891v-30.141c5.3203-0.34766 13.746-1.7773 19.699-7.1562 4.293-3.8789 6.5664-9.0391 6.7695-15.344 0.070312-2.3203-1.75-4.2578-4.0703-4.3281-2.3008-0.12109-4.2617 1.7461-4.332 4.0664-0.12109 3.9766-1.4258 7.0352-3.9805 9.3516-3.9492 3.582-9.9844 4.6797-14.086 5v-47.98c3.6602-1.7148 7.8789-2.8359 9.3555-1.9844 0.55078 0.31641 0.75 1.6641 0.75 2.8203 0 2.3203 1.8828 4.1992 4.1992 4.1992 2.3203 0 4.1992-1.8828 4.1992-4.1992 0-5.9844-2.6953-8.793-4.9531-10.098-4.0352-2.3359-9.3633-1.3008-13.551 0.19141v-84.773c8.5469-6.0547 17.605-9.1641 26.965-9.1641 25.57 0 46.379 19.562 46.379 43.609 0 28.102-9.8672 42.434-30.16 43.82-1.6836 0.11328-3.1328 1.2266-3.6875 2.8203-0.54688 1.5938-0.085938 3.3633 1.1641 4.4922zm-49.059-69.395h-66.473c6.1797-7.5547 10.43-14.754 12.66-21.496 8.4844 2 29.23 6.3086 53.812 7.2227zm0-78.898v56.207c-30.449-1.1797-55.418-7.8555-55.676-7.9258-1.1055-0.29688-2.3008-0.13281-3.2852 0.46875-0.98828 0.60547-1.6836 1.582-1.918 2.7148-1.6875 7.9453-7.4922 17.414-16.754 27.438h-7.2422c13.441-45.863 46.746-76.766 84.875-78.902zm-98.711 87.301h15.207v63.188c0 2.3203 1.8828 4.1992 4.1992 4.1992 2.3203 0 4.1992-1.8828 4.1992-4.1992l0.003906-63.188h75.102v61.066l-18.594 13.707h-68.348l-11.77-14.121zm15.531 83.172h65.969c0.89844 0 1.7734-0.28516 2.4922-0.82031l14.715-10.852v45.82h-15.215c-2.3203 0-4.1992 1.8828-4.1992 4.1992 0 2.3203 1.8828 4.1992 4.1992 4.1992h15.215v30.957c-36.176-2.0859-68.754-30.832-83.176-73.504zm125.62 69.438c7.418-4.6875 14.535-10.461 20.648-16.973 12.918-13.762 19.551-28.914 18.676-42.668-1.3555-21.48-10.695-27.66-19.172-32.805 14.223-4.4336 27.551-17.375 27.551-50.309 0-28.68-24.578-52.012-54.781-52.012-9.3594 0-18.395 2.5703-26.965 7.5742l-0.003906-52.727c23.98 1.1406 46.895 11.844 64.887 30.652 22.285 23.297 34.195 56.32 32.68 90.609-0.11328 2.5664-0.19141 5.1172-0.27344 7.6484l-0.082031 2.6367c-2.457 76.445-28.723 100.86-63.164 108.37zm112.43-30.324h-57.711c9.5664-17.625 15.715-42.527 16.852-77.773l0.082031-2.6523c0.078125-2.4922 0.15234-5.0039 0.26172-7.5312 0.24609-5.5156 0.12109-10.996-0.27734-16.426h40.789v47.992h-24.375c-2.3203 0-4.1992 1.8828-4.1992 4.1992 0 2.3203 1.8828 4.1992 4.1992 4.1992h24.375z"/>
  <use x="70" y="644" xlink:href="#s"/>
  <use x="90.550781" y="644" xlink:href="#e"/>
  <use x="104.359375" y="644" xlink:href="#c"/>
  <use x="123.347656" y="644" xlink:href="#a"/>
  <use x="142.242188" y="644" xlink:href="#b"/>
  <use x="155.628906" y="644" xlink:href="#c"/>
  <use x="174.617188" y="644" xlink:href="#l"/>
  <use x="204.410156" y="644" xlink:href="#k"/>
  <use x="224.453125" y="644" xlink:href="#j"/>
  <use x="252.453125" y="644" xlink:href="#g"/>
  <use x="262.046875" y="644" xlink:href="#d"/>
  <use x="281.285156" y="644" xlink:href="#f"/>
  <use x="301.21875" y="644" xlink:href="#a"/>
  <use x="320.113281" y="644" xlink:href="#b"/>
  <use x="333.5" y="644" xlink:href="#a"/>
  <use x="362.140625" y="644" xlink:href="#i"/>
  <use x="382.074219" y="644" xlink:href="#a"/>
  <use x="400.96875" y="644" xlink:href="#f"/>
  <use x="420.902344" y="644" xlink:href="#h"/>
  <use x="440.945312" y="644" xlink:href="#h"/>
  <use x="460.988281" y="644" xlink:href="#a"/>
  <use x="70" y="672" xlink:href="#r"/>
  <use x="82.183594" y="672" xlink:href="#e"/>
  <use x="95.992188" y="672" xlink:href="#d"/>
  <use x="115.226562" y="672" xlink:href="#q"/>
  <use x="154.152344" y="672" xlink:href="#b"/>
  <use x="167.535156" y="672" xlink:href="#i"/>
  <use x="187.46875" y="672" xlink:href="#c"/>
  <use x="216.207031" y="672" xlink:href="#p"/>
  <use x="239.640625" y="672" xlink:href="#d"/>
  <use x="258.878906" y="672" xlink:href="#o"/>
  <use x="278.8125" y="672" xlink:href="#f"/>
  <use x="308.492188" y="672" xlink:href="#n"/>
  <use x="329.015625" y="672" xlink:href="#e"/>
  <use x="342.820312" y="672" xlink:href="#d"/>
  <use x="362.058594" y="672" xlink:href="#g"/>
  <use x="371.65625" y="672" xlink:href="#c"/>
  <use x="390.648438" y="672" xlink:href="#m"/>
  <use x="407.242188" y="672" xlink:href="#b"/>
 </g>
</svg>
